<?xml version="1.0" encoding="utf-8"?>
<!-- Generator: Adobe Illustrator 21.1.0, SVG Export Plug-In . SVG Version: 6.00 Build 0)  -->
<svg version="1.1" id="图层_1" xmlns="http://www.w3.org/2000/svg"  x="0px" y="0px"
	 viewBox="0 0 128 128" style="enable-background:new 0 0 128 128;" xml:space="preserve">
<style type="text/css">
	.st0{fill:#FDEC56;}
	.st1{fill:#FFFFFF;}
	.st2{fill:#CABA2E;}
</style>
<g id="_x23_fdb039ff">
	<path class="st0" d="M60.5,0h6.9c12.8,0.7,25.4,5.1,35.3,13.2c8.5,6.2,15.2,14.8,19.6,24.3c3.3,7.2,4.8,15.1,5.6,23v6.9
		c-0.2,2-0.4,4-0.7,5.9c-5.6-3.4-9.5-8.6-14.1-13c-3.8-2.6-8.1-4.3-12.2-6.2C87.6,48,74.6,41.3,61.1,35.5
		c-11.5,6.1-23,12.1-34.5,18.1c-3.8,1.9-7.5,4-11.1,6.2c5.9,4.4,12.2,8.2,18.3,12.3c0,3.6-0.1,7.1,0.5,10.7c0.3,2.5,2.8,3.9,4.5,5.5
		c3.7,3.2,6.9,7,10.6,10.3c4.4,3.9,8.7,7.9,12.9,12.1c5.2,5.3,11,9.9,16,15.3c-0.6,0.2-1.8,0.6-2.5,0.9c-2.7,0.6-5.5,1-8.3,1.1h-6.9
		c-18.5-0.8-36.4-10.3-47.4-25.2C5.1,92.8,0.7,80.2,0,67.4v-6.9c0.8-7.8,2.2-15.8,5.6-23C10.8,26,19.8,16.4,30.3,9.4
		C39.2,3.5,49.9,1,60.5,0z"/>
</g>
<g id="_x23_ffffffff">
	<path class="st1" d="M26.6,53.6c11.5-6,23-12,34.5-18.1c13.5,5.8,26.5,12.5,39.8,18.6c4.2,1.9,8.4,3.7,12.2,6.2
		c-5.1,2.3-10,5.2-14.9,7.9c0.4,5.5-0.5,11.3,2,16.4c-1.4,0-2.8,0.1-4.2,0.1c0.8-5.2,1-10.4,1-15.7c-1.3,0.7-2.5,1.4-3.8,2.1
		c-0.1,4.2,0.1,8.4-0.7,12.4c-0.6,2.8-3.4,4.1-5.7,5.1c-9.3,3.7-19.5,4.3-29.4,3.8c-6.4-0.4-12.7-1.8-18.7-4.2
		c-1.7-1.6-4.2-3-4.5-5.5c-0.5-3.5-0.4-7.1-0.5-10.7c-6.1-4.1-12.4-7.9-18.3-12.3C19.1,57.6,22.8,55.6,26.6,53.6z"/>
</g>
<g id="_x23_ca8d2eff">
	<path class="st2" d="M98.3,68.3c4.9-2.7,9.8-5.5,14.9-7.9c4.6,4.4,8.6,9.6,14.1,13c-1.4,11.5-6.4,22.4-13.6,31.4
		c-4.4,6-10.6,10.2-16.7,14.2c-6.4,4.1-13.7,6.6-21.2,7.9c0.6-0.2,1.9-0.6,2.5-0.9c-5.1-5.4-10.8-10-16-15.3
		c-4.1-4.2-8.5-8.2-12.9-12.1c-3.7-3.3-6.9-7-10.6-10.3c6,2.4,12.3,3.8,18.7,4.2c9.9,0.6,20.1-0.1,29.4-3.8c2.3-1,5.1-2.3,5.7-5.1
		c0.9-4.1,0.6-8.3,0.7-12.4c1.3-0.7,2.5-1.4,3.8-2.1c0,5.2-0.2,10.5-1,15.7c1.4,0,2.8-0.1,4.2-0.1C97.7,79.6,98.6,73.8,98.3,68.3z"
		/>
</g>
</svg>
