<?xml version="1.0" encoding="UTF-8" ?>
<!DOCTYPE svg PUBLIC "-//W3C//DTD SVG 1.1//EN" "http://www.w3.org/Graphics/SVG/1.1/DTD/svg11.dtd">
<svg width="128pt" height="128pt" viewBox="0 0 128 128" version="1.1" xmlns="http://www.w3.org/2000/svg">
<g id="#fdb039ff">
<path fill="#fdb039" opacity="1.00" d=" M 60.51 0.00 L 67.45 0.00 C 80.20 0.66 92.85 5.07 102.79 13.17 C 111.30 19.41 118.01 27.94 122.42 37.51 C 125.76 44.72 127.17 52.64 128.00 60.50 L 128.00 67.42 C 127.84 69.39 127.59 71.37 127.30 73.33 C 121.75 69.97 117.81 64.76 113.16 60.38 C 109.34 57.82 105.07 56.07 100.92 54.13 C 87.61 48.00 74.55 41.31 61.09 35.49 C 49.63 41.60 38.14 47.64 26.63 53.64 C 22.84 55.56 19.13 57.62 15.53 59.87 C 21.42 64.28 27.74 68.05 33.82 72.17 C 33.87 75.72 33.72 79.31 34.27 82.83 C 34.59 85.36 37.06 86.73 38.76 88.33 C 42.48 91.58 45.70 95.35 49.38 98.63 C 53.77 102.57 58.12 106.54 62.25 110.75 C 67.42 116.02 73.21 120.63 78.26 126.02 C 77.65 126.23 76.41 126.66 75.79 126.87 C 73.05 127.45 70.26 127.85 67.47 128.00 L 60.55 128.00 C 42.06 127.19 24.14 117.72 13.17 102.79 C 5.07 92.85 0.66 80.20 0.00 67.45 L 0.00 60.50 C 0.83 52.65 2.24 44.72 5.58 37.50 C 10.79 25.95 19.80 16.40 30.26 9.39 C 39.25 3.54 49.93 1.00 60.51 0.00 Z" />
</g>
<g id="#ffffffff">
<path fill="#ffffff" opacity="1.00" d=" M 26.63 53.64 C 38.14 47.64 49.63 41.60 61.09 35.49 C 74.55 41.31 87.61 48.00 100.92 54.13 C 105.07 56.07 109.34 57.82 113.16 60.38 C 108.05 62.72 103.20 65.57 98.27 68.26 C 98.63 73.76 97.74 79.55 100.30 84.64 C 98.88 84.67 97.46 84.71 96.05 84.74 C 96.85 79.56 97.09 74.31 97.04 69.07 C 95.77 69.78 94.50 70.49 93.24 71.20 C 93.13 75.35 93.38 79.56 92.52 83.64 C 91.94 86.40 89.14 87.71 86.81 88.73 C 77.52 92.42 67.32 93.08 57.44 92.50 C 51.04 92.14 44.71 90.72 38.76 88.33 C 37.06 86.73 34.59 85.36 34.27 82.83 C 33.72 79.31 33.87 75.72 33.82 72.17 C 27.74 68.05 21.42 64.28 15.53 59.87 C 19.13 57.62 22.84 55.56 26.63 53.64 Z" />
</g>
<g id="#ca8d2eff">
<path fill="#ca8d2e" opacity="1.00" d=" M 98.27 68.26 C 103.20 65.57 108.05 62.72 113.16 60.38 C 117.81 64.76 121.75 69.97 127.30 73.33 C 125.91 84.85 120.87 95.69 113.68 104.72 C 109.27 110.68 103.11 114.95 96.98 118.95 C 90.57 123.06 83.26 125.59 75.79 126.87 C 76.41 126.66 77.65 126.23 78.26 126.02 C 73.21 120.63 67.42 116.02 62.25 110.75 C 58.12 106.54 53.77 102.57 49.38 98.63 C 45.70 95.35 42.48 91.58 38.76 88.33 C 44.71 90.72 51.04 92.14 57.44 92.50 C 67.32 93.08 77.52 92.42 86.81 88.73 C 89.14 87.71 91.94 86.40 92.52 83.64 C 93.38 79.56 93.13 75.35 93.24 71.20 C 94.50 70.49 95.77 69.78 97.04 69.07 C 97.09 74.31 96.85 79.56 96.05 84.74 C 97.46 84.71 98.88 84.67 100.30 84.64 C 97.74 79.55 98.63 73.76 98.27 68.26 Z" />
</g>
</svg>
